<?xml version="1.0" encoding="iso-8859-1"?><!--Generator: Adobe Illustrator 19.0.0, SVG Export Plug-In . SVG Version: 6.00 Build 0)--><svg xmlns="http://www.w3.org/2000/svg" viewBox="0 0 512 512"><path d="M137.143 34.479h-64c-5.05 0-9.143 4.093-9.143 9.143v9.143c0 5.049 4.093 9.143 9.143 9.143v91.429h64v-91.43c5.05 0 9.143-4.094 9.143-9.143v-9.143c0-5.049-4.093-9.142-9.143-9.142z" fill="#ffdc64"/><path fill="#ffc850" d="M73.14 61.907h64v18.286h-64z"/><path fill="#ffdc64" d="M484.571 208.193L256 52.764 27.429 208.193v274.286h457.142z"/><path fill="#ffc850" d="M256 52.764L27.429 208.193v36.571L256 89.336l228.571 155.428v-36.571z"/><path d="M245.372 23.785L7.657 193.58C2.852 197.013 0 202.555 0 208.46v27.481c0 3.693 4.174 5.841 7.18 3.695L256 61.907l248.82 177.729c3.005 2.147 7.18-.002 7.18-3.695V208.46c0-5.905-2.852-11.447-7.657-14.88L266.628 23.785c-6.358-4.542-14.898-4.542-21.256 0z" fill="#ff507d"/><path d="M0 222.293v13.648c0 3.693 4.175 5.841 7.18 3.695L256 61.907l248.82 177.729c3.005 2.146 7.18-.002 7.18-3.695v-13.648L256 39.436 0 222.293z" fill="#d23c69"/><path d="M484.571 400.193h-153.3c-7.727 0-15.347 2.318-21.514 6.975-14.955 11.292-30.693 20.869-46.15 27.939-2.415 1.105-5.011 1.657-7.607 1.657s-5.191-.552-7.607-1.657c-15.457-7.071-31.195-16.648-46.15-27.939-6.167-4.656-13.787-6.975-21.514-6.975h-153.3c-5.049 0-9.143 4.093-9.143 9.143v73.143c0 5.049 4.093 9.143 9.143 9.143h457.143c5.049 0 9.143-4.093 9.143-9.143v-73.143c-.001-5.05-4.094-9.143-9.144-9.143z" fill="#ffc850"/><path d="M210.286 460.196v-41.717h-91.429v41.717c0 8.515-5.877 15.903-14.174 17.817l-58.969 13.608h237.714l-58.969-13.608c-8.296-1.914-14.173-9.302-14.173-17.817z" fill="#e6af78"/><path d="M118.857 453.12c13.731 7.044 29.251 11.073 45.714 11.073s31.983-4.029 45.714-11.073v-20.927h-91.429l.001 20.927z" fill="#d29b6e"/><path d="M246.857 327.05v-54.857H82.286v54.857C72.187 327.05 64 335.236 64 345.336c0 10.099 8.187 18.286 18.286 18.286 0 45.445 36.84 82.286 82.286 82.286s82.286-36.84 82.286-82.286c10.099 0 18.286-8.187 18.286-18.286-.001-10.1-8.188-18.286-18.287-18.286z" fill="#f0c087"/><path d="M128 363.621v-91.429H82.286v54.857C72.187 327.05 64 335.236 64 345.336c0 10.099 8.187 18.286 18.286 18.286 0 45.445 36.84 82.286 82.286 82.286 7.94 0 15.593-1.186 22.857-3.285C153.117 432.709 128 401.126 128 363.621z" fill="#e6af78"/><path d="M164.571 409.336c-9.679 0-18.929-4.567-25.384-12.527-3.188-3.924-2.58-9.679 1.339-12.862 3.938-3.174 9.688-2.567 12.857 1.344 6.036 7.429 16.339 7.429 22.375 0 3.179-3.911 8.929-4.518 12.857-1.344 3.92 3.183 4.527 8.938 1.339 12.862-6.454 7.96-15.704 12.527-25.383 12.527z" fill="#d29b6e"/><g fill="#64463c"><path d="M128 363.621c-5.054 0-9.143-4.094-9.143-9.143v-9.143c0-5.049 4.089-9.143 9.143-9.143s9.143 4.094 9.143 9.143v9.143c0 5.05-4.089 9.143-9.143 9.143zM201.143 363.621c-5.054 0-9.143-4.094-9.143-9.143v-9.143c0-5.049 4.089-9.143 9.143-9.143s9.143 4.094 9.143 9.143v9.143c0 5.05-4.09 9.143-9.143 9.143z"/></g><path d="M226.117 318.348c2.67 7.071 10.228 10.274 17.672 8.968.995-.175 2.02-.266 3.068-.266 3.348 0 6.444.965 9.143 2.536v-57.393c0-13.679-7.598-25.463-18.72-31.735-2.078-13.089-13.321-23.122-26.994-23.122h-73.143c-35.346 0-64 28.654-64 64v48.251c2.699-1.571 5.795-2.536 9.143-2.536 1.176 0 2.322.114 3.43.333 8.904 1.753 17.821-3.169 20.05-11.966l2.248-8.993c.994-3.975 4.478-6.809 8.574-6.919 17.011-.459 61.914-2.715 92.531-13.796 5.421-1.962 11.262 1.339 12.21 7.025l3.424 20.541c.292 1.761.754 3.456 1.364 5.072z" fill="#785546"/><g fill="#64463c"><path d="M128 272.193c0-30.297 24.56-54.857 54.857-54.857h-45.714c-35.346 0-64 28.653-64 64v48.251c2.699-1.571 5.795-2.536 9.143-2.536 1.176 0 2.321.114 3.43.333 8.905 1.753 17.821-3.169 20.05-11.966l2.248-8.993c.993-3.975 4.478-6.809 8.574-6.92 3.001-.081 6.906-.223 11.412-.454v-26.858zM347.272 208.193c55.544 0 100.572 46.58 100.572 104.039 0 66.207 9.143 141.557 9.143 141.557s-45.714 28.374-109.714 37.833c-64-9.458-109.714-37.833-109.714-37.833s9.143-75.35 9.143-141.557c-.002-57.459 45.026-104.039 100.57-104.039z"/></g><path d="M310.7 302.774V274.4c0-32.152 22.16-58.929 51.537-64.931-4.895-.757-9.866-1.276-14.965-1.276h-.001c-55.544 0-100.571 46.58-100.571 104.039 0 66.207-9.143 141.557-9.143 141.557s45.714 28.374 109.714 37.833V340.607L310.7 302.774z" fill="#553732"/><path d="M429.558 491.621l-34.22-13.688c-6.942-2.777-11.494-9.501-11.494-16.978v-33.334H310.7v33.334c0 7.477-4.552 14.201-11.494 16.978l-34.22 13.688h164.572z" fill="#b48764"/><path d="M310.7 457.208c11.352 4.453 23.66 6.985 36.571 6.985 12.911 0 25.22-2.532 36.571-6.985v-29.586H310.7v29.586z" fill="#966d50"/><path d="M316.498 295.375c-2.801-2.113-6.781-1.074-8.208 2.133-4.728 10.623-16.843 29.542-43.147 29.541v.001c-10.099 0-18.286 8.186-18.286 18.286 0 10.099 8.187 18.286 18.286 18.286 0 45.445 36.84 82.286 82.286 82.286s82.286-36.84 82.286-82.286c-.001-60.89-74.482-39.022-113.217-68.247z" fill="#c39772"/><path d="M310.857 363.621v-68.65c-1.069.54-2.027 1.323-2.568 2.536-4.728 10.623-16.843 29.542-43.147 29.541v.001c-10.099 0-18.286 8.186-18.286 18.286 0 10.099 8.187 18.286 18.286 18.286 0 45.445 36.84 82.286 82.286 82.286 7.94 0 15.593-1.186 22.857-3.285-34.311-9.913-59.428-41.496-59.428-79.001z" fill="#b48764"/><path d="M347.272 409.336c-9.679 0-18.929-4.567-25.384-12.527-3.188-3.924-2.58-9.679 1.339-12.862 3.938-3.179 9.688-2.571 12.857 1.344 6.036 7.429 16.339 7.429 22.375 0 3.17-3.915 8.929-4.522 12.857-1.344 3.92 3.183 4.527 8.938 1.339 12.862-6.455 7.96-15.705 12.527-25.383 12.527z" fill="#966d50"/><g fill="#553732"><path d="M383.843 363.621c-5.054 0-9.143-4.094-9.143-9.143v-9.143c0-5.049 4.089-9.143 9.143-9.143s9.143 4.094 9.143 9.143v9.143c0 5.05-4.089 9.143-9.143 9.143zM310.7 363.621c-5.054 0-9.143-4.094-9.143-9.143v-9.143c0-5.049 4.089-9.143 9.143-9.143s9.143 4.094 9.143 9.143v9.143c0 5.05-4.089 9.143-9.143 9.143z"/></g></svg>